# xmcd CD database file
#
# Track frame offsets:
#	150
#	13132
#	39552
#	63842
#	96042
#	122687
#	147402
#	179902
#	205130
#	227950
#	232890
#
# Disc length: 3542 seconds
#
# Revision: 0
# Processed by: cddbd v1.5.1PL0 Copyright (c) Steve Scherf et al.
# Submitted via: CDex 1.51
#
DISCID=990dd40b
DTITLE=坂本サトル - LIVE caravan Tour PRIDE 完全版 20031109-1101 discA
DYEAR=2004
DGENRE=Rock
TTITLE0=OPENING (Interlude 2003)
TTITLE1=始まりの歌
TTITLE2=最後のミス
TTITLE3=かけがえのない朝
TTITLE4=愛の言葉
TTITLE5=シアワセサカソウ
TTITLE6=赤い月
TTITLE7=フェイ
TTITLE8=霧雨
TTITLE9=MC1 「火消し」
TTITLE10=喧嘩しちゃいけません
EXTD=YEAR: 2004
EXTT0=
EXTT1=
EXTT2=
EXTT3=
EXTT4=
EXTT5=
EXTT6=
EXTT7=
EXTT8=
EXTT9=
EXTT10=
PLAYORDER=
